PathFileType	4	(X/Y/Z)	70_2_83_p0_0-384.trc
DataRate	CameraRate	NumFrames	NumMarkers	Units	OrigDataRate	OrigDataStartFrame	OrigNumFrames
50.0	50.0	5	27	m	50.0	0	385
Frame#	Time	RHip			RKnee			RAnkle			RBigToe			RSmallToe			RHeel			LHip			LKnee			LAnkle			LBigToe			LSmallToe			LHeel			Neck			Head			Nose			RShoulder			RElbow			RWrist			RThumb			RIndex			RPinky			LShoulder			LElbow			LWrist			LThumb			LIndex			LPinky			
		X1	Y1	Z1	X2	Y2	Z2	X3	Y3	Z3	X4	Y4	Z4	X5	Y5	Z5	X6	Y6	Z6	X7	Y7	Z7	X8	Y8	Z8	X9	Y9	Z9	X10	Y10	Z10	X11	Y11	Z11	X12	Y12	Z12	X13	Y13	Z13	X14	Y14	Z14	X15	Y15	Z15	X16	Y16	Z16	X17	Y17	Z17	X18	Y18	Z18	X19	Y19	Z19	X20	Y20	Z20	X21	Y21	Z21	X22	Y22	Z22	X23	Y23	Z23	X24	Y24	Z24	X25	Y25	Z25	X26	Y26	Z26	X27	Y27	Z27	
0	0.0	0.3753880158088387	0.5368941741070782	0.10614196792223748	0.38237094468358634	0.7025787363526195	0.4977534302905243	0.37775893261007676	0.7866207679338301	0.9186046586876069	0.32296307040343386	0.6463751284795192	1.0073526686542489	0.38130355160524465	0.632642151109041	0.9860118189476238	0.36104673842776114	0.9058277757935684	0.9890975381531875	0.14023434437644858	0.6108474029637266	0.09000456239990737	0.17384468899424085	0.7184958354635278	0.5049319040715173	0.1740327416219997	0.8251642312849756	0.8949622019723296	0.16622264482292431	0.6571335520027808	0.9852080025804519	0.1154483453558036	0.7187063786997769	0.9797276638869918	0.19599418804919838	0.8819952755088285	0.95270078722231	0.24422364174301162	0.39135933167658576	-0.5564497049677822	0.22599340886130312	0.3096488474890064	-0.8070531535037099	0.22024393057972166	0.23175656144340645	-0.6534953046257012	0.4347550969266424	0.40087684311778626	-0.4547705042837691	0.5013018058439962	0.4580564768994966	-0.15956323349670873	0.47351473330562466	0.4381803273926813	0.12182768138888989	0.4120553342436575	0.4023611054684414	0.2495747970664442	0.4308370363385833	0.4211532857708302	0.27765129075655054	0.4620199298471743	0.44772076585713144	0.27500601168289296	0.08198839407977113	0.5128711150152648	-0.466623699379869	0.018523586989027827	0.5763317208472704	-0.17524382470400574	0.016846085105858142	0.5947157346938179	0.10608484225512715	0.05186331921889736	0.5438750075557619	0.21438243872802684	0.03707105009247305	0.5389480657803127	0.24147646761953442	0.017622813318823167	0.6221479769262023	0.23696003542077573
1	0.02	0.37529426060739995	0.5364980155969732	0.10597783624594122	0.3830051019788965	0.6998474654952961	0.4965659243451325	0.378545504292543	0.7850167465627566	0.9135526312000779	0.3227361303451857	0.6460797565260603	1.0072982631692808	0.38164788098886965	0.630250680812457	0.9814366762884658	0.36117283123518534	0.9056316036639633	0.9889601687221574	0.13526632697725308	0.6081368640135522	0.0854381167760765	0.17294595316695494	0.7159892465663652	0.4996170374328035	0.17329836017533776	0.8266723598805437	0.8994588009850325	0.16033235417078448	0.6402267474422924	0.975070224933559	0.11543208058283204	0.7190462769033092	0.9797736942813295	0.19635466238162425	0.8824091252995119	0.9526580507672233	0.24466579424534204	0.392523130658501	-0.5533665595803016	0.22593771007026234	0.3095785061466478	-0.8068269664073388	0.22022517849625325	0.23174611480094037	-0.6534836589457985	0.4347018902829948	0.401325106188407	-0.45182477191867376	0.48966484932546944	0.455289382784731	-0.16232362362145403	0.4793408218350096	0.4495785289050698	0.12268743796464515	0.4163825648337065	0.40403240728414347	0.24973817359170788	0.43522982532316784	0.4232239667176462	0.2781331770431792	0.4610163734002424	0.44776964826801224	0.2752956270092929	0.08483476190200627	0.49948304625799406	-0.4652032848835423	0.017761014465971527	0.5744460630299927	-0.1833434913533881	0.012765094025982386	0.5937029188370652	0.10586876616980732	0.05177156078391182	0.5435405146542597	0.2139434681074101	0.028600244096984126	0.523636401199798	0.2393055784281938	0.017554734836120692	0.6218083585037187	0.2367524245250915
2	0.04	0.3772271816531313	0.521733924355391	0.10482793390469637	0.3828834926974889	0.6997367819024017	0.4967122046394883	0.3785878701277786	0.785087990643243	0.9137228303221065	0.3177439189749407	0.63116742117635	0.9978198327883205	0.38770783263903286	0.6148367312609999	0.976091893958731	0.36707510201115656	0.9208748042160294	0.9939937215692038	0.13526198304818718	0.6078123026488959	0.0854879851752903	0.17416774943953853	0.7183338917932554	0.5050655257022112	0.175482220098941	0.8279247481000946	0.9002990941131177	0.16022765380748383	0.6401933761047802	0.9751430694055271	0.11527562178114435	0.7189792004618932	0.979764479398238	0.197512990261547	0.8852620070517335	0.9579266632065149	0.2446788161697843	0.392584223637086	-0.5532727104173505	0.225960475865528	0.3096449904981472	-0.8067335861961867	0.22026387647993864	0.2318076523006582	-0.6535550561832947	0.4331644679092737	0.41434794092968086	-0.45620428990762973	0.48123004625375854	0.4439469685293057	-0.16198300838281904	0.47852824283835615	0.4480795154486448	0.11825684073082189	0.4272789241367947	0.4164033828244565	0.254752472736132	0.441129966374765	0.4107067133759371	0.27644426093122837	0.46651124660949145	0.4581016008088957	0.27272770413455594	0.08483999915729648	0.49949637049110474	-0.4651036520893075	0.0183817077481922	0.5761912315346164	-0.17930742600041397	0.012533868409924313	0.5939285197110485	0.10202878559346543	0.05141365192121961	0.5431651252058417	0.2142226611878948	0.027689296076134233	0.5215743020212	0.23626419228999648	0.01753565779201218	0.6223064268177871	0.23709455686622988
3	0.06	0.3774221914458827	0.5220490031901608	0.10495422671660506	0.38300028547325954	0.7001331309848956	0.4967888245855201	0.3766625967783106	0.8022996088729638	0.9189506450672068	0.320976407300542	0.6431148123374144	1.0030751050885907	0.3879888936275128	0.6149778938754048	0.9761758563644692	0.3668330386670185	0.9205436011604076	0.99372459629399	0.13854537100825473	0.5931615120929317	0.08449046993557904	0.1730644133053906	0.7160922254099996	0.4995290432963573	0.1750394845146456	0.8236337405443234	0.890164042319504	0.16029809033846165	0.6406733681293414	0.9751741804762015	0.11610177264632107	0.7176838811386279	0.9758893923033228	0.19754737348498702	0.8862482909810498	0.95384159153969	0.2446580637391605	0.3925618607300679	-0.5533359566215521	0.2259143890868789	0.30959903594553484	-0.8068133728075201	0.2202309977997145	0.2319317831835161	-0.6535934899994029	0.43318334466477826	0.4143731338649331	-0.45618775617588364	0.4812139119378613	0.44390363685393813	-0.16185098879487264	0.4795908133368196	0.44949392978726405	0.12226309445943104	0.4321557630755257	0.4199138375885832	0.26315951443259566	0.44259161351371756	0.4124038124236324	0.28041901037050443	0.47739849796468947	0.480754309796109	0.2757651487045244	0.08192454893501355	0.5135361616148719	-0.46313559548585886	0.018436121987762417	0.576163323550106	-0.179369422259861	0.012398244421810176	0.5940340105607633	0.10203215100934068	0.04315362373601322	0.5292541187319818	0.2129744977754932	0.01799824581339462	0.5120125821808286	0.2353875189988089	0.014384773162182736	0.6373582554398362	0.23874359158537686
4	0.08	0.37711636167802454	0.5221344665145307	0.10106780406779241	0.38302840912123076	0.7001789390184521	0.4967985470937603	0.3846135117315783	0.7998638125753577	0.9183327910651639	0.32082118265724086	0.6425642577276909	1.0029072943960793	0.387888309216237	0.6146597603514562	0.9762144172454259	0.3667252620009816	0.9200191471626543	0.9936077421717343	0.13942497363010942	0.6083610596466862	0.08549639912438695	0.1771781279809245	0.7160886141180558	0.4996685274781862	0.17427377016969622	0.8250186473783778	0.8947423176935869	0.16026620001726383	0.6404930637202568	0.9751837381662906	0.11517849382065344	0.7192771835948754	0.9799443601370654	0.20233505781890473	0.8882416008261886	0.9549932419968261	0.24424788163009806	0.3913318478662953	-0.5564489882751765	0.22590782461318334	0.30947741637699266	-0.8069153489437131	0.22023435919612516	0.23190672564389422	-0.6535956927766671	0.4331783147174393	0.41442813148743235	-0.45619168355695705	0.48112823121525183	0.4438303722099046	-0.16178250436355252	0.4801587304331805	0.4495959020829867	0.12473619079417847	0.4358201149493634	0.4205704762366869	0.2636035282708246	0.4466721964114567	0.4130685822791758	0.2806254559604854	0.47850374954984043	0.48262133326748224	0.27890257742574104	0.0819704056029301	0.512870864874205	-0.46637626442615454	0.018725626430914275	0.5753159064286315	-0.18295138074429737	0.01237968974998098	0.5941598267675178	0.10202430053137958	0.04296730157543262	0.5297874726378433	0.21292586927466714	0.021749471109804474	0.5262521089454755	0.24022076074123752	0.010830237898857955	0.6242777431483586	0.23749000917503862
